<?xml version="1.0" encoding="utf-8"?>
<!-- Generator: Adobe Illustrator 22.1.0, SVG Export Plug-In . SVG Version: 6.00 Build 0)  -->
<svg version="1.1" id="Livello_1" xmlns="http://www.w3.org/2000/svg" xmlns:xlink="http://www.w3.org/1999/xlink" x="0px" y="0px"
	 viewBox="0 0 400 400" style="enable-background:new 0 0 400 400;" xml:space="preserve">
<style type="text/css">
	.st0{fill:#010101;}
	.st1{fill:#F57F20;}
</style>
<g>
	<g>
		<g>
			<polygon class="st0" points="315.2,19.8 315.1,60.5 315.1,60.5 315.1,19.8 			"/>
		</g>
	</g>
	<path class="st1" d="M254.4,337.5l25,40.6h-97.9C82.6,378.1,2.3,297.8,2.3,199c0-98.8,80.3-179.1,179.1-179.1h76.8v40.6h-76.8
		C105,60.5,42.9,122.6,42.9,199c0,76.4,62.1,138.5,138.5,138.5H254.4z"/>
	<path class="st0" d="M400,378.1H295.6l-35-56.9h-79.1C114,321.2,59.2,266.4,59.2,199c0-67.4,54.8-122.3,122.3-122.3h93V19.8h40.6
		l-0.1,97.5H181.5c-45,0-81.7,36.6-81.7,81.6c0,45,36.6,81.7,81.7,81.7h54.2l-0.1-0.2h40.6l35,57h16.2l-44.9-73.1h-101
		c-11.2,0-20.3-9.1-20.3-20.3c0-11.2,9.1-20.3,20.3-20.3h123.7L400,378.1z"/>
	<rect x="274.5" y="19.8" class="st0" width="40.6" height="0"/>
	<line class="st0" x1="315.1" y1="117.3" x2="315" y2="117.3"/>
</g>
</svg>
